<?xml version="1.0" encoding="UTF-8"?><svg id="Layer_1" xmlns="http://www.w3.org/2000/svg" viewBox="0 0 583 183.5"><defs><style>.cls-1{fill:#f7931e;}.cls-2{fill:#fff;}.cls-3{fill:#ff931e;}</style></defs><rect class="cls-2" width="583" height="183.5" rx="34.36" ry="34.36"/><g><path class="cls-1" d="M55.56,50.36h55.88v8.03l-38.17,72.49h-9.13L102.31,58.28H55.56v-7.92Z"/><path class="cls-3" d="M134.87,125.27c0,3.74-2.97,6.82-6.82,6.82s-6.82-3.08-6.82-6.82,3.08-6.82,6.82-6.82,6.82,2.97,6.82,6.82Z"/><path d="M145.09,65.04h16.29v65.88h-6.75v-59.4h-9.54v-6.48Z"/><path d="M238.97,55.86l-10.78,18.59h19.36v52.36h-26.95v-39.38l-9.13,15.84v-16.39l17.93-31.02h-17.05v-8.14h38.28v8.14h-11.66Zm-10.23,26.51v36.52h10.67v-36.52h-10.67Zm76.56,.22v8.14h-13.09v46.09h-8.36v-46.09h-16.39l-7.81,46.09h-8.14l7.81-46.09h-10.78v-8.14h12.1l4.73-27.83h-13.53v-8.14h50.38v8.14h-10.01v27.83h13.09Zm-36.41,0h14.96v-27.83h-10.23l-4.73,27.83Z"/><path d="M397.92,127.91h17.38v7.92h-25.96v-36.19h-25.96l-30.03,37.18h-11l29.92-37.18h-23.65v-8.25h30.36l8.14-10.12h11l-8.14,10.12h27.94v36.52Zm-40.37-67.98l-21.23,26.29h-10.78l21.12-26.29h10.89Zm-22.88-3.19v10.12h-8.58v-18.04h38.61v-6.6h8.25v6.6h38.72v18.04h-8.58v-10.12h-68.42Zm36.41,2.09h8.36v11.77h34.43v7.92h-42.79v-19.69Z"/><path d="M475.47,61.58v38.5h-27.5l-7.15,36.74h-8.58l7.59-38.5V61.58h35.64Zm3.63-15.29v8.25h-45.54v-8.25h45.54Zm-11.77,45.76v-22.44h-19.36v22.44h19.36Zm57.97-17.71v8.14h-12.32v54.34h-8.03v-54.34h-15.4v41.58l-6.38,11.66h-9.24l7.26-13.31V56.08l41.58-12.32v8.47l-33.22,9.79v12.32h35.75Z"/></g></svg>